<svg width="120" height="120" xmlns="http://www.w3.org/2000/svg">
 <defs data-uid="o_eljl87527_6">
  <linearGradient data-uid="o_eljl87527_7" y2="50%" x2="100%" y1="50%" x1="0%" id="go_eljl6im47_39">
   <stop stop-color=" rgb(43, 183, 218)" data-uid="o_eljl87527_8" offset="0%"/>
   <stop stop-color=" rgb(49, 211, 92)" data-uid="o_eljl87527_9" offset="100%"/>
  </linearGradient>
 </defs>
 <g>
  <title>Layer 1</title>
  <g id="svg_1" data-uid="o_eljl87527_13" transform="matrix(0.839678 0 0 0.839678 63.5869 71.9448)">
   <g id="svg_2" data-uid="o_eljl87527_14" fill="url(#go_eljl6im47_39)" transform="matrix(1.44465 0 0 1.44465 2.61776 122.948)">
    <path id="svg_3" data-uid="o_eljl87527_15" d="m-47.43298,-90.38963l2.3,-1.1l-2.8,-3.8l0.5,4.9z" data-type="polygon" fill="url(#go_eljl6im47_39)"/>
    <path id="svg_4" data-uid="o_eljl87527_16" d="m-41.93298,-87.08963l2.3,-6.3l-7.3,3.5l5,2.8z" data-type="polygon" fill="url(#go_eljl6im47_39)"/>
    <path id="svg_5" data-uid="o_eljl87527_17" d="m12.46702,-127.48963l-5.4,13.6l6.6,0.1l3.8,-4.5l-5,-9.2z" data-type="polygon" fill="url(#go_eljl6im47_39)"/>
    <path id="svg_6" data-uid="o_eljl87527_18" fill="url(#go_eljl6im47_39)" d="m18.86702,-124.08963l-5.1,-3.1l4.6,8.5l12.8,2l-12.3,-7.4c0.1,0 0,0 0,0z"/>
    <path id="svg_7" data-uid="o_eljl87527_19" d="m14.66702,-101.18963l-1.2,-11.6l-6.8,-0.1l-4.5,11.2l12.5,0.5z" data-type="polygon" fill="url(#go_eljl6im47_39)"/>
    <path id="svg_8" data-uid="o_eljl87527_20" d="m29.26702,-140.08963l-12,13.8l1.8,1.1l10.2,-14.9z" data-type="polygon" fill="url(#go_eljl6im47_39)"/>
    <path id="svg_9" data-uid="o_eljl87527_21" d="m4.66702,-118.68963l1.6,3.9l8,-19.7l-9.6,15.8z" data-type="polygon" fill="url(#go_eljl6im47_39)"/>
    <path id="svg_10" data-uid="o_eljl87527_22" d="m2.56702,-105.58963l3.2,-7.8l-1.4,-3.5l-1.8,11.3z" data-type="polygon" fill="url(#go_eljl6im47_39)"/>
    <path id="svg_11" data-uid="o_eljl87527_23" d="m-27.03298,-88.48963l-2.1,3.1l2.9,4.9l-0.8,-8z" data-type="polygon" fill="url(#go_eljl6im47_39)"/>
    <path id="svg_12" data-uid="o_eljl87527_24" d="m-40.83298,-87.58963l6.3,-2.6l1.1,-4.2l-5.2,0.8l-2.2,6z" data-type="polygon" fill="url(#go_eljl6im47_39)"/>
    <path id="svg_13" data-uid="o_eljl87527_25" d="m-32.43298,-94.08963l-1,3.8l5.3,-0.2l-4.3,-3.6z" data-type="polygon" fill="url(#go_eljl6im47_39)"/>
    <path id="svg_14" data-uid="o_eljl87527_26" d="m32.96702,-115.38963l-14.7,-2.3l-3.3,3.9l17.4,0.3l0.6,-1.9z" data-type="polygon" fill="url(#go_eljl6im47_39)"/>
    <path id="svg_15" data-uid="o_eljl87527_27" d="m15.76702,-100.88963l6.6,6.7l-7.6,-16.1l1,9.4z" data-type="polygon" fill="url(#go_eljl6im47_39)"/>
    <path id="svg_16" data-uid="o_eljl87527_28" d="m-20.23298,-70.48963l12.4,-19.7l-18.3,0.7l1.2,11.1l4.7,7.9z" data-type="polygon" fill="url(#go_eljl6im47_39)"/>
    <path id="svg_17" data-uid="o_eljl87527_29" fill="url(#go_eljl6im47_39)" d="m19.36702,-79.88963c-0.1,0 -0.1,0 0,0c-0.1,0 -0.1,0.1 -0.1,0.1c0,0 0,0 -0.1,0c0,0 0,0 -0.1,0c0,0 0,0 -0.1,0l-7.4,0.7l11.1,14.8l-1.8,-16.9l-1.5,1.3z"/>
    <path id="svg_18" data-uid="o_eljl87527_30" d="m25.26702,-91.28963l2.4,2.4l2.7,-2.5l-5.1,0.1z" data-type="polygon" fill="url(#go_eljl6im47_39)"/>
    <path id="svg_19" data-uid="o_eljl87527_31" fill="url(#go_eljl6im47_39)" d="m15.06702,-100.08963l-13.2,-0.5l-1.1,7l18.2,12.7l1.9,-1.8c0,0 0.1,-0.1 0.1,-0.1l5.9,-5.4l-11.8,-11.9z"/>
    <path id="svg_20" data-uid="o_eljl87527_32" d="m28.36702,-88.18963l9.1,9.2l-5.8,-12.1l-3.3,2.9z" data-type="polygon" fill="url(#go_eljl6im47_39)"/>
    <path id="svg_21" data-uid="o_eljl87527_33" d="m-2.63298,-78.78963l2.2,-13.8l-6.1,2.3l-12.3,19.5l16.2,-8z" data-type="polygon" fill="url(#go_eljl6im47_39)"/>
    <path id="svg_22" data-uid="o_eljl87527_34" d="m-23.33298,-63.68963l13.2,12.2l-10.1,-17l-3.1,4.8z" data-type="polygon" fill="url(#go_eljl6im47_39)"/>
    <path id="svg_23" data-uid="o_eljl87527_35" d="m23.86702,-62.78963l5.7,7.4l-6.4,-13.9l0.7,6.5z" data-type="polygon" fill="url(#go_eljl6im47_39)"/>
    <path id="svg_24" data-uid="o_eljl87527_36" d="m0.56702,-92.48963l-2.1,13.5l19,-1.7l-16.9,-11.8z" data-type="polygon" fill="url(#go_eljl6im47_39)"/>
    <path id="svg_25" data-uid="o_eljl87527_37" d="m-23.63298,-65.18963l2.8,-4.3l-3.9,-6.5l1.1,10.8z" data-type="polygon" fill="url(#go_eljl6im47_39)"/>
    <path id="svg_26" data-uid="o_eljl87527_38" d="m-22.03298,-50.08963l1.8,-9.4l-3.1,-2.8l1.3,12.2z" data-type="polygon" fill="url(#go_eljl6im47_39)"/>
   </g>
  </g>
 </g>
</svg>