<svg width="390" height="130" xmlns="http://www.w3.org/2000/svg">
 <defs data-uid="o_eljl87527_6">
  <linearGradient data-uid="o_eljl87527_7" y2="50%" x2="100%" y1="50%" x1="0%" id="go_eljl6im47_39">
   <stop stop-color=" rgb(43, 183, 218)" data-uid="o_eljl87527_8" offset="0%"/>
   <stop stop-color=" rgb(49, 211, 92)" data-uid="o_eljl87527_9" offset="100%"/>
  </linearGradient>
  <linearGradient data-uid="o_eljl87527_10" y2="50%" x2="100%" y1="50%" x1="0%" id="go_eljl7b2ie_44">
   <stop stop-color=" rgb(43, 183, 218)" data-uid="o_eljl87527_11" offset="0%"/>
   <stop stop-color=" rgb(49, 211, 92)" data-uid="o_eljl87527_12" offset="100%"/>
  </linearGradient>
 </defs>
 <g>
  <title>Layer 1</title>
  <g id="svg_1" data-uid="o_eljl87527_13" transform="matrix(0.839678 0 0 0.839678 63.5869 71.9448)">
   <g id="svg_2" data-uid="o_eljl87527_14" fill="url(#go_eljl6im47_39)" transform="matrix(1.44465 0 0 1.44465 2.61776 122.948)">
    <path id="svg_3" data-uid="o_eljl87527_15" d="m-47.43298,-85.44338l2.3,-1.1l-2.8,-3.8l0.5,4.9z" data-type="polygon" fill="url(#go_eljl6im47_39)"/>
    <path id="svg_4" data-uid="o_eljl87527_16" d="m-41.93298,-82.14338l2.3,-6.3l-7.3,3.5l5,2.8z" data-type="polygon" fill="url(#go_eljl6im47_39)"/>
    <path id="svg_5" data-uid="o_eljl87527_17" d="m12.46702,-122.54338l-5.4,13.6l6.6,0.1l3.8,-4.5l-5,-9.2z" data-type="polygon" fill="url(#go_eljl6im47_39)"/>
    <path id="svg_6" data-uid="o_eljl87527_18" fill="url(#go_eljl6im47_39)" d="m18.86702,-119.14338l-5.1,-3.1l4.6,8.5l12.8,2l-12.3,-7.4c0.1,0 0,0 0,0z"/>
    <path id="svg_7" data-uid="o_eljl87527_19" d="m14.66702,-96.24338l-1.2,-11.6l-6.8,-0.1l-4.5,11.2l12.5,0.5z" data-type="polygon" fill="url(#go_eljl6im47_39)"/>
    <path id="svg_8" data-uid="o_eljl87527_20" d="m29.26702,-135.14338l-12,13.8l1.8,1.1l10.2,-14.9z" data-type="polygon" fill="url(#go_eljl6im47_39)"/>
    <path id="svg_9" data-uid="o_eljl87527_21" d="m4.66702,-113.74338l1.6,3.9l8,-19.7l-9.6,15.8z" data-type="polygon" fill="url(#go_eljl6im47_39)"/>
    <path id="svg_10" data-uid="o_eljl87527_22" d="m2.56702,-100.64338l3.2,-7.8l-1.4,-3.5l-1.8,11.3z" data-type="polygon" fill="url(#go_eljl6im47_39)"/>
    <path id="svg_11" data-uid="o_eljl87527_23" d="m-27.03298,-83.54338l-2.1,3.1l2.9,4.9l-0.8,-8z" data-type="polygon" fill="url(#go_eljl6im47_39)"/>
    <path id="svg_12" data-uid="o_eljl87527_24" d="m-40.83298,-82.64338l6.3,-2.6l1.1,-4.2l-5.2,0.8l-2.2,6z" data-type="polygon" fill="url(#go_eljl6im47_39)"/>
    <path id="svg_13" data-uid="o_eljl87527_25" d="m-32.43298,-89.14338l-1,3.8l5.3,-0.2l-4.3,-3.6z" data-type="polygon" fill="url(#go_eljl6im47_39)"/>
    <path id="svg_14" data-uid="o_eljl87527_26" d="m32.96702,-110.44338l-14.7,-2.3l-3.3,3.9l17.4,0.3l0.6,-1.9z" data-type="polygon" fill="url(#go_eljl6im47_39)"/>
    <path id="svg_15" data-uid="o_eljl87527_27" d="m15.76702,-95.94338l6.6,6.7l-7.6,-16.1l1,9.4z" data-type="polygon" fill="url(#go_eljl6im47_39)"/>
    <path id="svg_16" data-uid="o_eljl87527_28" d="m-20.23298,-65.54338l12.4,-19.7l-18.3,0.7l1.2,11.1l4.7,7.9z" data-type="polygon" fill="url(#go_eljl6im47_39)"/>
    <path id="svg_17" data-uid="o_eljl87527_29" fill="url(#go_eljl6im47_39)" d="m19.36702,-74.94338c-0.1,0 -0.1,0 0,0c-0.1,0 -0.1,0.1 -0.1,0.1c0,0 0,0 -0.1,0c0,0 0,0 -0.1,0c0,0 0,0 -0.1,0l-7.4,0.7l11.1,14.8l-1.8,-16.9l-1.5,1.3z"/>
    <path id="svg_18" data-uid="o_eljl87527_30" d="m25.26702,-86.34338l2.4,2.4l2.7,-2.5l-5.1,0.1z" data-type="polygon" fill="url(#go_eljl6im47_39)"/>
    <path id="svg_19" data-uid="o_eljl87527_31" fill="url(#go_eljl6im47_39)" d="m15.06702,-95.14338l-13.2,-0.5l-1.1,7l18.2,12.7l1.9,-1.8c0,0 0.1,-0.1 0.1,-0.1l5.9,-5.4l-11.8,-11.9z"/>
    <path id="svg_20" data-uid="o_eljl87527_32" d="m28.36702,-83.24338l9.1,9.2l-5.8,-12.1l-3.3,2.9z" data-type="polygon" fill="url(#go_eljl6im47_39)"/>
    <path id="svg_21" data-uid="o_eljl87527_33" d="m-2.63298,-73.84338l2.2,-13.8l-6.1,2.3l-12.3,19.5l16.2,-8z" data-type="polygon" fill="url(#go_eljl6im47_39)"/>
    <path id="svg_22" data-uid="o_eljl87527_34" d="m-23.33298,-58.74338l13.2,12.2l-10.1,-17l-3.1,4.8z" data-type="polygon" fill="url(#go_eljl6im47_39)"/>
    <path id="svg_23" data-uid="o_eljl87527_35" d="m23.86702,-57.84338l5.7,7.4l-6.4,-13.9l0.7,6.5z" data-type="polygon" fill="url(#go_eljl6im47_39)"/>
    <path id="svg_24" data-uid="o_eljl87527_36" d="m0.56702,-87.54338l-2.1,13.5l19,-1.7l-16.9,-11.8z" data-type="polygon" fill="url(#go_eljl6im47_39)"/>
    <path id="svg_25" data-uid="o_eljl87527_37" d="m-23.63298,-60.24338l2.8,-4.3l-3.9,-6.5l1.1,10.8z" data-type="polygon" fill="url(#go_eljl6im47_39)"/>
    <path id="svg_26" data-uid="o_eljl87527_38" d="m-22.03298,-45.14338l1.8,-9.4l-3.1,-2.8l1.3,12.2z" data-type="polygon" fill="url(#go_eljl6im47_39)"/>
   </g>
   <path id="svg_27" d="m114.3229,-19.02051l9.6519,0l0,29.56894q0,5.05258 -2.26633,8.86535q-2.26633,3.81277 -6.54569,5.85246q-4.27936,2.02637 -10.1185,2.02637l0,0q-8.81202,0 -13.6913,-4.51933q-4.86594,-4.506 -4.86594,-12.35816l0,0l0,-29.43563l9.6519,0l0,27.96918q0,5.27922 2.11969,7.74552q2.13302,2.4663 7.03895,2.4663l0,0q4.74596,0 6.89231,-2.47963q2.13302,-2.47963 2.13302,-7.79884l0,0l0,-27.90252zm52.34056,22.90326l0,22.78328l-9.53192,0l0,-20.39697q0,-3.7861 -1.34647,-5.67916q-1.34647,-1.89305 -4.27936,-1.89305l0,0q-3.99941,0 -5.78581,2.6796q-1.77307,2.66627 -1.77307,8.85202l0,0l0,16.43756l-9.53192,0l0,-34.92814l7.27892,0l1.27981,4.466l0.53325,0q1.59976,-2.53296 4.38601,-3.8261q2.79958,-1.30647 6.35906,-1.30647l0,0q6.09243,0 9.25196,3.30618q3.15953,3.29284 3.15953,9.50525l0,0zm9.40776,-21.18352l0,0q0,-4.65264 5.1859,-4.65264l0,0q5.1859,0 5.1859,4.65264l0,0q0,2.22634 -1.30647,3.45282q-1.29314,1.23982 -3.87942,1.23982l0,0q-5.1859,0 -5.1859,-4.69264zm9.93186,9.03866l0,34.92814l-9.53192,0l0,-34.92814l9.53192,0zm24.18099,35.55472l0,0q-16.30424,0 -16.30424,-17.90401l0,0q0,-8.90534 4.42601,-13.61131q4.43934,-4.70597 12.71811,-4.70597l0,0q6.06577,0 10.87838,2.38631l0,0l-2.81292,7.37224q-2.253,-0.90653 -4.18604,-1.49311q-1.93305,-0.57325 -3.87942,-0.57325l0,0q-7.42556,0 -7.42556,10.55843l0,0q0,10.25181 7.42556,10.25181l0,0q2.75959,0 5.09258,-0.73322q2.34632,-0.73322 4.69264,-2.29299l0,0l0,8.14546q-2.30632,1.46645 -4.66597,2.0397q-2.35965,0.55992 -5.95911,0.55992zm26.31568,-18.1573l0,0q0,5.1859 1.69308,7.83884q1.70641,2.66627 5.54584,2.66627l0,0q3.81277,0 5.49252,-2.63961q1.66642,-2.63961 1.66642,-7.8655l0,0q0,-5.1859 -1.69308,-7.77218q-1.67975,-2.59961 -5.51918,-2.59961l0,0q-3.81277,0 -5.50585,2.57295q-1.67975,2.58628 -1.67975,7.79884zm24.14308,0l0,0q0,8.53207 -4.49267,13.34468q-4.506,4.81262 -12.53147,4.81262l0,0q-5.02592,0 -8.87868,-2.19967q-3.83943,-2.213 -5.90579,-6.33239q-2.05303,-4.11939 -2.05303,-9.62524l0,0q0,-8.55873 4.466,-13.30469q4.466,-4.75929 12.55813,-4.75929l0,0q5.02592,0 8.87868,2.19967q3.83943,2.18634 5.90579,6.27907q2.05303,4.09273 2.05303,9.58524zm27.38093,-18.06398l0,0q1.93305,0 3.21286,0.29329l0,0l-0.71989,8.93201q-1.15983,-0.31995 -2.81292,-0.31995l0,0q-4.55932,0 -7.10561,2.34632q-2.54629,2.34632 -2.54629,6.55903l0,0l0,17.78402l-9.53192,0l0,-34.92814l7.21226,0l1.41312,5.8658l0.4666,0q1.62643,-2.9329 4.38601,-4.73263q2.77292,-1.79973 6.02577,-1.79973zm41.80295,12.81143l0,22.78328l-9.53192,0l0,-20.39697q0,-3.7861 -1.34647,-5.67916q-1.34647,-1.89305 -4.27936,-1.89305l0,0q-3.99941,0 -5.78581,2.6796q-1.77307,2.66627 -1.77307,8.85202l0,0l0,16.43756l-9.53192,0l0,-34.92814l7.27892,0l1.27981,4.466l0.53325,0q1.59976,-2.53296 4.38601,-3.8261q2.79958,-1.30647 6.35906,-1.30647l0,0q6.09243,0 9.25196,3.30618q3.15953,3.29284 3.15953,9.50525l0,0zm8.96784,-22.90326l8.7187,0l-1.27981,16.50421l-6.15908,0l-1.27981,-16.50421zm42.23831,35.31475l0,0q0,5.37254 -3.73278,8.18545q-3.73278,2.81292 -11.17167,2.81292l0,0q-3.81277,0 -6.49237,-0.51992q-2.69293,-0.50659 -5.03925,-1.50644l0,0l0,-7.87883q2.66627,1.25315 5.98578,2.09302q3.33284,0.83988 5.8658,0.83988l0,0q5.1859,0 5.1859,-2.99955l0,0q0,-1.11983 -0.69323,-1.8264q-0.6799,-0.70656 -2.37298,-1.58643q-1.69308,-0.8932 -4.506,-2.07969l0,0q-4.02607,-1.69308 -5.91912,-3.13287q-1.87972,-1.42645 -2.74626,-3.29284q-0.85321,-1.85306 -0.85321,-4.57265l0,0q0,-4.66597 3.59947,-7.21226q3.6128,-2.54629 10.23848,-2.54629l0,0q6.30573,0 12.27818,2.75959l0,0l-2.87957,6.86565q-2.61295,-1.11983 -4.90594,-1.83973q-2.27966,-0.71989 -4.65264,-0.71989l0,0q-4.21271,0 -4.21271,2.27966l0,0q0,1.27981 1.3598,2.22634q1.3598,0.93319 5.94578,2.77292l0,0q4.09273,1.65309 5.99911,3.09287q1.90638,1.43979 2.81292,3.31951q0.90653,1.86639 0.90653,4.466z" data-uid="o_eljl87527_39" letter-spacing="0" font-style="normal" font-weight="700" font-family="Open Sans" font-size="48" font-scale="contain" offset="0.5" text-anchor="middle" space="preserve" fill="url(#go_eljl7b2ie_44)" text="Unicorn's"/>
  </g>
 </g>
</svg>